<?xml version="1.0" encoding="UTF-8"?>
<!-- Generated by Pixelmator Pro 3.7.1 -->
<svg width="500" height="500" viewBox="0 0 500 500" xmlns="http://www.w3.org/2000/svg">
    <path id="Path" fill="#fd9a00" stroke="none" d="M 235.968994 0.321991 C 187.044998 3.071991 140.315002 19.970001 101.051003 49.016998 C 85.431 60.575989 69.875999 75.345001 56.941002 90.899994 C 44.366001 106.028992 31.889 125.644989 23.636999 143.328003 C 10.702 171 3.497 197.820007 0.616 228.864014 C -0.105 236.919983 -0.236 261.513 0.452 269.470001 C 5.331 326.809998 27.632 377.765015 66.240997 419.845001 C 82.222 437.266998 102.917999 453.902008 123.809998 466.149994 C 153.348007 483.407013 187.242004 494.671997 221.069 498.503998 C 231.647003 499.714996 234.692001 499.846008 249.886993 499.846008 C 265.540009 499.846008 268.584991 499.683014 279.850006 498.339996 C 362.372986 488.549011 434.94101 437.790985 472.894989 363.290985 C 486.877991 335.848999 495.720001 305.622986 498.731995 274.873993 C 500.53299 256.764008 500.239014 236.296997 497.914001 218.057007 C 492.575989 175.682007 475.940002 134.682983 450.167999 100.364014 C 407.563995 43.613007 344.199005 7.919006 273.955994 1.108002 C 262.462006 -0.006012 247.266998 -0.300995 235.968994 0.321991 Z M 253.653 90.997986 C 262.002991 92.013 269.306 95.549988 275.069 101.281006 C 281.062012 107.338989 284.664001 115.035004 285.416992 123.549011 C 285.614014 125.612 285.744995 140.578003 285.744995 158.195007 C 285.744995 175.289001 285.778015 189.23999 285.842987 189.23999 C 285.908997 189.23999 303.265015 186.718018 324.419006 183.640015 C 345.574005 180.595001 364.109009 177.975006 365.64801 177.877014 C 372.85199 177.38501 381.235992 179.841003 387.752014 184.359985 C 390.993988 186.587006 395.644012 191.498993 397.707001 194.872009 C 400.916992 200.046021 402.618988 205.645996 402.881012 211.867981 C 403.339996 222.248993 400.065002 230.927002 392.894012 238.425995 C 388.373993 243.109009 383.13501 246.253006 376.912994 247.988007 C 375.014008 248.544998 361.980011 250.542007 339.614014 253.751999 C 320.718994 256.470001 305.06601 258.729004 304.837006 258.761993 C 304.640015 258.795013 315.511993 280.40799 329.528015 307.783997 C 343.313995 334.703003 355.102997 357.888 355.726013 359.263 C 360.605011 370.299011 359.359985 383.463013 352.515991 393.61499 C 350.747986 396.299988 346.786011 400.393005 344.002014 402.424011 C 335.68399 408.613007 324.256012 410.807007 314.071014 408.187012 C 310.174011 407.171997 304.509003 404.45401 301.431 402.128998 C 298.61499 399.967987 295.110992 396.266998 293.243988 393.417999 C 292.393005 392.140991 282.306 372.688995 270.779999 350.126007 L 249.820999 309.127014 L 228.764999 350.290009 C 217.205002 372.917999 207.054001 392.467987 206.201996 393.746002 C 201.649994 400.589996 193.725998 406.091003 185.179001 408.317993 C 181.380005 409.299988 174.929001 409.562012 170.966003 408.875 C 159.242996 406.812012 149.746002 399.738007 144.604996 389.194 C 140.675003 381.203003 139.921997 371.313995 142.542007 362.963013 C 143.557007 359.721008 141.820999 363.225006 170.867996 306.376007 C 184.195999 280.309998 195.067993 258.925995 195.003006 258.859985 C 194.936996 258.795013 179.251007 256.502014 160.160004 253.751999 C 138.154007 250.574997 124.432999 248.479004 122.664001 247.955002 C 109.695999 244.287994 99.806999 233.514008 97.318001 220.350006 C 96.598 216.583984 96.629997 210.164978 97.416 206.432007 C 100.100998 193.431 109.762001 182.951996 122.402 179.285004 C 126.102997 178.203979 130.981995 177.647003 134.257004 177.908997 C 135.697998 178.007996 154.199997 180.595001 175.322006 183.673004 C 196.444 186.718018 213.798996 189.23999 213.865005 189.23999 C 213.929993 189.23999 214.061005 173.947021 214.126999 155.247986 C 214.257996 118.210999 214.126999 120.273987 216.156998 114.544006 C 219.595993 104.687012 227.815002 96.43399 237.770004 92.86499 C 242.912003 91.031006 248.479004 90.376007 253.653 90.997986 Z"/>
</svg>
